<svg width="21" height="19" viewBox="0 0 21 19" fill="none" xmlns="http://www.w3.org/2000/svg">
<path d="M18.0352 0.141187C19.2366 0.0661713 20.2316 1.06172 20.1559 2.26309L19.9458 5.59619C19.9244 5.93621 19.6312 6.19435 19.2912 6.17249C18.9517 6.15065 18.6941 5.8579 18.7156 5.51839L18.7448 5.05846C18.8076 4.06933 17.6143 3.52718 16.9106 4.2251L12.4915 8.60782C12.0075 9.08774 11.2281 9.09081 10.7404 8.61471L9.6292 7.52463C8.84843 6.75874 7.59726 6.76206 6.82056 7.53207L1.04631 13.2566C0.658742 13.6409 0 13.3663 0 12.8206C0 12.6567 0.0654776 12.4997 0.181866 12.3844L6.81597 5.81173C7.59241 5.04249 8.84257 5.03901 9.62328 5.80391L10.2032 6.37208C10.984 7.13715 12.2345 7.13348 13.0109 6.36385L16.0157 3.38514C16.7231 2.68384 16.1838 1.48028 15.1895 1.54158L14.721 1.57047C14.3847 1.5912 14.0953 1.33532 14.0747 0.998997C14.054 0.663001 14.3095 0.373821 14.6455 0.352842L18.0352 0.141187Z" fill="#D4DCE2"/>
<path d="M1.51953 16.2755C1.51953 15.3869 2.23989 14.6665 3.12849 14.6665C4.0171 14.6665 4.73746 15.3869 4.73746 16.2755V16.9841C4.73746 17.8727 4.0171 18.593 3.12849 18.593C2.23989 18.593 1.51953 17.8727 1.51953 16.9841V16.2755Z" fill="#D4DCE2"/>
<path d="M5.97559 13.3316C5.97559 12.443 6.69594 11.7227 7.58455 11.7227C8.47315 11.7227 9.19351 12.443 9.19351 13.3316V16.9854C9.19351 17.874 8.47315 18.5944 7.58455 18.5944C6.69594 18.5944 5.97559 17.874 5.97559 16.9854V13.3316Z" fill="#D4DCE2"/>
<path d="M10.4316 14.8028C10.4316 13.9142 11.152 13.1938 12.0406 13.1938C12.9292 13.1938 13.6496 13.9142 13.6496 14.8028V16.9837C13.6496 17.8723 12.9292 18.5927 12.0406 18.5927C11.152 18.5927 10.4316 17.8723 10.4316 16.9837V14.8028Z" fill="#D4DCE2"/>
<path d="M14.8867 11.1231C14.8867 10.2345 15.6071 9.51416 16.4957 9.51416C17.3843 9.51416 18.1046 10.2345 18.1046 11.1231V16.9855C18.1046 17.8741 17.3843 18.5945 16.4957 18.5945C15.6071 18.5945 14.8867 17.8741 14.8867 16.9855V11.1231Z" fill="#D4DCE2"/>
</svg>
